<svg version="1.1" id="Layer_1" xmlns="http://www.w3.org/2000/svg" xmlns:xlink="http://www.w3.org/1999/xlink" x="0px" y="0px" style="enable-background:new 0 0 960 560;" xml:space="preserve" viewBox="447.77 215.3 63.55 71.02">
<style type="text/css">
	.st0{fill:#3B4546;}
	.st1{fill:#AC520F;}
	.st2{fill:#F36E81;}
	.st3{fill:#FD6075;}
	.st4{fill:#E08899;}
	.st5{fill:#E3364A;}
	.st6{fill:#9D4F5D;}
	.st7{fill:#F9C9C7;}
	.st8{fill:#FCCFCA;}
	.st9{fill:#E7CCD0;}
	.st10{fill:#F6E1DE;}
	.st11{fill:#DDE9E6;}
	.st12{fill:#FFEEF0;}
	.st13{fill:#EBF2ED;}
	.st14{fill:#FFF3E9;}
	.st15{fill:#F4D7C9;}
	.st16{fill:#F5E3D9;}
	.st17{fill:#FCFCFA;}
	.st18{fill:#F3F6F5;}
	.st19{fill:#F1F2E9;}
	.st20{fill:#E02C47;}
	.st21{fill:#C82D3F;}
	.st22{fill:#A4051B;}
	.st23{fill:#BC253F;}
	.st24{fill:#BB1627;}
	.st25{fill:#8E172A;}
	.st26{fill:#932B35;}
	.st27{fill:#7F0016;}
	.st28{fill:#EF304F;}
	.st29{fill:#F44661;}
	.st30{fill:#9D3244;}
	.st31{fill:#902339;}
	.st32{fill:#F4E4CE;}
	.st33{fill:#E0B28A;}
	.st34{fill:#B75638;}
	.st35{fill:#AE0C23;}
	.st36{fill:#BE2732;}
	.st37{fill:#A30D3F;}
	.st38{fill:#8B645F;}
	.st39{fill:#5C282B;}
	.st40{fill:#6C3839;}
	.st41{fill:#61333B;}
	.st42{fill:#74343C;}
	.st43{fill:#F6D5B1;}
	.st44{fill:#F4C4C0;}
	.st45{fill:#B4645F;}
	.st46{fill:none;stroke:#AE0C23;stroke-width:0.75;stroke-miterlimit:10;}
	.st47{fill:none;stroke:#E3364A;stroke-width:0.75;stroke-miterlimit:10;}
	.st48{fill:none;stroke:#F36E81;stroke-width:0.75;stroke-miterlimit:10;}
	.st49{fill:#E54257;}
	.st50{fill:#C3182A;}
	.st51{fill:#C41C2D;}
</style>
<polygon id="XMLID_43_" class="st0" points="481.8,225.8 485,221.9 481.8,216.7 "/>
<polygon id="XMLID_41_" class="st1" points="477.2,222.5 481.8,225.8 481.8,216.7 "/>
<polygon id="XMLID_5_" class="st2" points="481.5,243.2 479.6,260.2 470.1,243.2 "/>
<polygon id="XMLID_6_" class="st3" points="481.5,243.2 470.1,243.2 481.8,225.8 "/>
<polygon id="XMLID_26_" class="st4" points="470.1,243.2 459.4,244.6 471.4,225.8 "/>
<polygon id="XMLID_28_" class="st5" points="475.5,225.8 470.1,243.2 471.4,225.8 "/>
<polygon id="XMLID_52_" class="st6" points="481.8,225.8 470.1,243.2 475.5,225.8 "/>
<polygon id="XMLID_13_" class="st7" points="504.8,240.1 510.2,260.1 500.4,241 "/>
<polygon id="XMLID_35_" class="st7" points="504.8,260.1 504.7,275.7 510.2,260.1 "/>
<polygon id="XMLID_48_" class="st8" points="505.6,251.1 504.8,260.1 510.2,260.1 "/>
<polygon id="XMLID_10_" class="st9" points="491.4,228.8 500.4,241 482,228.5 "/>
<polygon id="XMLID_42_" class="st8" points="504.7,275.7 494.5,285.4 504.8,260.1 "/>
<polygon id="XMLID_34_" class="st10" points="482,228.5 500.4,241 482,235.2 "/>
<polygon id="XMLID_38_" class="st11" points="482,235.2 500.4,241 481.7,243.2 "/>
<polygon id="XMLID_55_" class="st12" points="488.6,244.7 500.4,241 479.6,260.2 "/>
<polygon id="XMLID_56_" class="st13" points="481.7,243.2 500.4,241 488.6,244.7 "/>
<polygon id="XMLID_59_" class="st12" points="504.8,260.1 505.6,251.1 479.6,260.2 "/>
<polygon id="XMLID_30_" class="st14" points="500.4,241 505.6,251.1 479.6,260.2 "/>
<polygon id="XMLID_36_" class="st15" points="486,285.6 494.5,285.4 485,277.1 "/>
<polygon id="XMLID_37_" class="st16" points="492.6,283.8 504.8,260.1 485,277.1 "/>
<polygon id="XMLID_31_" class="st17" points="489.3,260.2 479.6,260.2 485,277.1 "/>
<polygon id="XMLID_112_" class="st14" points="504.8,260.1 489.3,260.2 485,277.1 "/>
<polygon id="XMLID_33_" class="st18" points="505.6,251.1 504.8,260.1 479.6,260.2 "/>
<polygon id="XMLID_29_" class="st19" points="481.7,243.2 488.6,244.7 479.6,260.2 "/>
<polygon id="XMLID_23_" class="st8" points="504.2,240.2 500.4,241 491.4,228.8 "/>
<polygon id="XMLID_54_" class="st10" points="494.5,285.4 492.6,283.8 504.8,260.1 "/>
<polygon id="XMLID_17_" class="st20" points="470.1,243.2 460.8,260.2 459.4,244.6 "/>
<polygon id="XMLID_63_" class="st21" points="470.2,277.1 459.4,276 460.8,260.2 "/>
<polygon id="XMLID_69_" class="st22" points="470.2,277.1 465.6,286.3 459.4,276 "/>
<polygon id="XMLID_74_" class="st23" points="460.8,260.2 459.4,276 447.8,260.2 "/>
<polygon id="XMLID_47_" class="st24" points="459.4,276 453.9,275.4 447.8,260.2 "/>
<polygon id="XMLID_49_" class="st25" points="459.4,276 465.6,286.3 453.9,275.4 "/>
<polygon id="XMLID_20_" class="st26" points="485,277.1 486.1,286.3 470.2,277.1 "/>
<polygon id="XMLID_53_" class="st27" points="470.2,277.1 486.1,286.3 465.6,286.3 "/>
<polygon id="XMLID_18_" class="st28" points="460.8,260.2 447.8,260.2 459.4,244.6 "/>
<polygon id="XMLID_19_" class="st29" points="459.4,244.6 447.8,260.2 453.9,239.9 "/>
<polygon id="XMLID_21_" class="st3" points="471.4,225.8 459.4,244.6 453.9,239.9 "/>
<polygon id="XMLID_75_" class="st30" points="468.5,216.2 481.8,225.8 471.4,225.8 "/>
<polygon id="XMLID_50_" class="st31" points="468.6,216.4 475.5,225.8 471.4,225.8 "/>
<polygon id="XMLID_114_" class="st1" points="490.4,215.3 489.3,225.8 481.8,225.8 "/>
<polygon id="XMLID_32_" class="st32" points="488.5,219.2 489.3,225.3 481.8,225.8 "/>
<polygon id="XMLID_77_" class="st33" points="477.2,222.5 481.8,225.8 483.2,216.7 "/>
<polygon id="XMLID_113_" class="st34" points="481.8,225.8 485,221.9 483.2,216.7 "/>
<polygon id="XMLID_14_" class="st35" points="485,277.1 470.2,277.1 479.6,260.2 "/>
<polygon id="XMLID_15_" class="st36" points="470.2,277.1 460.8,260.2 479.6,260.2 "/>
<polygon id="XMLID_16_" class="st5" points="479.6,260.2 460.8,260.2 470.1,243.2 "/>
<line id="XMLID_1_" class="st37" x1="459.4" y1="244.6" x2="470.1" y2="243.2"/>
<polygon id="XMLID_3_" class="st38" points="504.2,240.2 505.3,239.9 489.3,225.3 491.4,228.8 "/>
<polygon id="XMLID_7_" class="st39" points="510.2,260.1 511.3,260.1 505.3,239.9 504.2,240.2 "/>
<polygon id="XMLID_8_" class="st40" points="504.7,275.7 505.7,276 511.3,260.1 510.2,260.1 "/>
<polygon id="XMLID_9_" class="st41" points="494.5,285.4 494.8,286.3 505.7,276 504.7,275.7 "/>
<polygon id="XMLID_11_" class="st42" points="486,285.6 486.1,286.3 494.8,286.3 494.5,285.4 "/>
<polygon id="XMLID_24_" class="st43" points="481.8,225.8 489.3,225.3 482,228.5 "/>
<polygon id="XMLID_22_" class="st44" points="489.3,225.3 491.4,228.8 482,228.5 "/>
<polygon id="XMLID_127_" class="st45" points="481.5,243.2 481.7,243.2 482,228.5 481.8,225.8 "/>
<polygon id="XMLID_135_" class="st38" points="479.6,260.2 479.8,260.2 481.7,243.2 481.5,243.2 "/>
<polygon id="XMLID_131_" class="st40" points="484.9,277.1 485.2,277 479.8,260.2 479.6,260.2 "/>
<polygon id="XMLID_133_" class="st41" points="485.9,285.6 486,285.6 485.2,277 485,277.1 "/>
<line id="XMLID_178_" class="st46" x1="488.3" y1="248.6" x2="492.6" y2="240.8"/>
<line id="XMLID_176_" class="st47" x1="488.3" y1="248.6" x2="492.3" y2="256.6"/>
<line id="XMLID_159_" class="st48" x1="496.9" y1="248.7" x2="492.3" y2="256.6"/>
<line id="XMLID_111_" class="st46" x1="492.3" y1="256.6" x2="488.4" y2="263.4"/>
<line id="XMLID_109_" class="st47" x1="488.3" y1="263.3" x2="494.7" y2="272.5"/>
<polygon id="XMLID_2_" class="st2" points="494.7,239.6 492.6,240.8 492.6,240.8 492.6,238.4 492.6,238.4 494.7,239.6 "/>
<polygon id="XMLID_202_" class="st49" points="494.7,242 492.6,240.8 494.7,239.6 "/>
<polygon id="XMLID_12_" class="st50" points="494.7,242 492.6,243.3 492.6,240.8 "/>
<polygon id="XMLID_46_" class="st35" points="492.6,243.3 490.6,242.1 492.6,240.8 "/>
<polygon id="XMLID_27_" class="st51" points="490.6,242.1 490.6,239.7 492.6,240.8 "/>
<polygon id="XMLID_25_" class="st5" points="492.6,240.8 490.6,239.7 492.6,238.4 "/>
<polygon id="XMLID_265_" class="st2" points="486.1,249.7 488.3,248.6 488.3,248.6 488,251 488,251 486.1,249.7 "/>
<polygon id="XMLID_262_" class="st49" points="486.3,247.3 488.3,248.6 486.1,249.7 "/>
<polygon id="XMLID_259_" class="st50" points="486.3,247.3 488.5,246.2 488.3,248.6 "/>
<polygon id="XMLID_181_" class="st35" points="488.5,246.2 490.4,247.5 488.3,248.6 "/>
<polygon id="XMLID_45_" class="st51" points="490.4,247.5 490.2,249.9 488.3,248.6 "/>
<polygon id="XMLID_39_" class="st5" points="488.3,248.6 490.2,249.9 488,251 "/>
<polygon id="XMLID_286_" class="st2" points="494.4,255.1 492.3,256.3 492.3,256.3 492.4,253.9 492.4,253.9 494.4,255.1 "/>
<polygon id="XMLID_283_" class="st49" points="494.4,257.5 492.3,256.3 494.4,255.1 "/>
<polygon id="XMLID_280_" class="st50" points="494.4,257.5 492.3,258.8 492.3,256.3 "/>
<polygon id="XMLID_224_" class="st35" points="492.3,258.8 490.2,257.6 492.3,256.3 "/>
<polygon id="XMLID_180_" class="st51" points="490.2,257.6 490.3,255.1 492.3,256.3 "/>
<polygon id="XMLID_40_" class="st5" points="492.3,256.3 490.3,255.1 492.4,253.9 "/>
<polygon id="XMLID_320_" class="st2" points="494.7,250.2 496.8,249 496.8,249 496.7,251.4 496.7,251.4 494.7,250.2 "/>
<polygon id="XMLID_317_" class="st49" points="494.7,247.7 496.8,249 494.7,250.2 "/>
<polygon id="XMLID_290_" class="st50" points="494.7,247.7 496.8,246.5 496.8,249 "/>
<polygon id="XMLID_223_" class="st35" points="496.8,246.5 498.9,247.7 496.8,249 "/>
<polygon id="XMLID_220_" class="st51" points="498.9,247.7 498.8,250.2 496.8,249 "/>
<polygon id="XMLID_44_" class="st5" points="496.8,249 498.8,250.2 496.7,251.4 "/>
<polygon id="XMLID_338_" class="st2" points="486.4,264.7 488.4,263.4 488.4,263.4 488.4,265.8 488.4,265.8 486.4,264.7 "/>
<polygon id="XMLID_335_" class="st49" points="486.3,262.3 488.4,263.4 486.4,264.7 "/>
<polygon id="XMLID_332_" class="st50" points="486.3,262.3 488.4,261 488.4,263.4 "/>
<polygon id="XMLID_260_" class="st35" points="488.4,261 490.4,262.1 488.4,263.4 "/>
<polygon id="XMLID_222_" class="st51" points="490.4,262.1 490.5,264.5 488.4,263.4 "/>
<polygon id="XMLID_51_" class="st5" points="488.4,263.4 490.5,264.5 488.4,265.8 "/>
<polygon id="XMLID_212_" class="st2" points="496.6,271.1 494.6,272.5 494.6,272.5 494.5,270.1 494.5,270.1 496.6,271.1 "/>
<polygon id="XMLID_209_" class="st49" points="496.7,273.5 494.6,272.5 496.6,271.1 "/>
<polygon id="XMLID_192_" class="st50" points="496.7,273.5 494.7,274.9 494.6,272.5 "/>
<polygon id="XMLID_184_" class="st35" points="494.7,274.9 492.6,273.9 494.6,272.5 "/>
<polygon id="XMLID_157_" class="st51" points="492.6,273.9 492.5,271.4 494.6,272.5 "/>
<polygon id="XMLID_144_" class="st5" points="494.6,272.5 492.5,271.4 494.5,270.1 "/>
</svg>